<svg xmlns="http://www.w3.org/2000/svg" style="display:none">
  <symbol id="icon-arrow-up" viewBox="0 0 13 7">
      <path fill-rule="evenodd" clip-rule="evenodd" d="M6.14663 0.146894C6.19308 0.10033 6.24825 0.0633873 6.309 0.0381808C6.36974 0.0129744 6.43486 0 6.50063 0C6.5664 0 6.63152 0.0129744 6.69226 0.0381808C6.75301 0.0633873 6.80819 0.10033 6.85463 0.146894L12.8546 6.14689C12.9485 6.24078 13.0013 6.36812 13.0013 6.50089C13.0013 6.63367 12.9485 6.76101 12.8546 6.85489C12.7607 6.94878 12.6334 7.00152 12.5006 7.00152C12.3679 7.00152 12.2405 6.94878 12.1466 6.85489L6.50063 1.20789L0.854632 6.85489C0.760745 6.94878 0.633407 7.00152 0.500632 7.00152C0.367856 7.00152 0.240518 6.94878 0.146632 6.85489C0.052745 6.76101 0 6.63367 0 6.50089C0 6.36812 0.052745 6.24078 0.146632 6.14689L6.14663 0.146894Z" />
  </symbol>
  <symbol id="icon-arrow-down" viewBox="0 0 13 7">
      <path fill-rule="evenodd" clip-rule="evenodd" d="M6.14663 6.85457C6.19308 6.90113 6.24825 6.93808 6.309 6.96328C6.36974 6.98849 6.43486 7.00146 6.50063 7.00146C6.5664 7.00146 6.63152 6.98849 6.69226 6.96328C6.75301 6.93808 6.80819 6.90113 6.85463 6.85457L12.8546 0.854571C12.9485 0.760684 13.0013 0.633347 13.0013 0.500571C13.0013 0.367795 12.9485 0.240458 12.8546 0.146571C12.7607 0.0526843 12.6334 -6.00815e-05 12.5006 -6.00815e-05C12.3679 -6.00815e-05 12.2405 0.0526843 12.1466 0.146571L6.50063 5.79357L0.854632 0.146571C0.760745 0.0526843 0.633407 -6.00815e-05 0.500632 -6.00815e-05C0.367856 -6.00815e-05 0.240518 0.0526843 0.146632 0.146571C0.052745 0.240458 0 0.367795 0 0.500571C0 0.633347 0.052745 0.760684 0.146632 0.854571L6.14663 6.85457Z" />
  </symbol>
  <symbol id="location-icon" viewBox="0 0 12 15">
      <path d="M9.53063 8.38125C9.03938 9.37687 8.37375 10.3688 7.69313 11.2594C7.04677 12.0984 6.35642 12.9027 5.625 13.6687C4.89358 12.9027 4.20324 12.0984 3.55688 11.2594C2.87625 10.3688 2.21063 9.37687 1.71938 8.38125C1.2225 7.37531 0.9375 6.43313 0.9375 5.625C0.9375 4.3818 1.43136 3.18951 2.31044 2.31044C3.18951 1.43136 4.3818 0.9375 5.625 0.9375C6.8682 0.9375 8.06049 1.43136 8.93956 2.31044C9.81864 3.18951 10.3125 4.3818 10.3125 5.625C10.3125 6.43313 10.0266 7.37531 9.53063 8.38125ZM5.625 15C5.625 15 11.25 9.66938 11.25 5.625C11.25 4.13316 10.6574 2.70242 9.60248 1.64752C8.54758 0.592632 7.11684 0 5.625 0C4.13316 0 2.70242 0.592632 1.64752 1.64752C0.592632 2.70242 2.22302e-08 4.13316 0 5.625C0 9.66938 5.625 15 5.625 15Z" />
      <path d="M5.625 7.5C5.12772 7.5 4.65081 7.30246 4.29917 6.95083C3.94754 6.59919 3.75 6.12228 3.75 5.625C3.75 5.12772 3.94754 4.65081 4.29917 4.29917C4.65081 3.94754 5.12772 3.75 5.625 3.75C6.12228 3.75 6.59919 3.94754 6.95082 4.29917C7.30246 4.65081 7.5 5.12772 7.5 5.625C7.5 6.12228 7.30246 6.59919 6.95082 6.95083C6.59919 7.30246 6.12228 7.5 5.625 7.5ZM5.625 8.4375C6.37092 8.4375 7.08629 8.14118 7.61374 7.61374C8.14118 7.08629 8.4375 6.37092 8.4375 5.625C8.4375 4.87908 8.14118 4.16371 7.61374 3.63626C7.08629 3.10882 6.37092 2.8125 5.625 2.8125C4.87908 2.8125 4.16371 3.10882 3.63626 3.63626C3.10882 4.16371 2.8125 4.87908 2.8125 5.625C2.8125 6.37092 3.10882 7.08629 3.63626 7.61374C4.16371 8.14118 4.87908 8.4375 5.625 8.4375Z" />
  </symbol>
  <symbol id="condition-icon" viewBox="0 0 16 16">
      <path d="M8 15C6.14348 15 4.36301 14.2625 3.05025 12.9497C1.7375 11.637 1 9.85652 1 8C1 6.14348 1.7375 4.36301 3.05025 3.05025C4.36301 1.7375 6.14348 1 8 1C9.85652 1 11.637 1.7375 12.9497 3.05025C14.2625 4.36301 15 6.14348 15 8C15 9.85652 14.2625 11.637 12.9497 12.9497C11.637 14.2625 9.85652 15 8 15ZM8 16C10.1217 16 12.1566 15.1571 13.6569 13.6569C15.1571 12.1566 16 10.1217 16 8C16 5.87827 15.1571 3.84344 13.6569 2.34315C12.1566 0.842855 10.1217 0 8 0C5.87827 0 3.84344 0.842855 2.34315 2.34315C0.842855 3.84344 0 5.87827 0 8C0 10.1217 0.842855 12.1566 2.34315 13.6569C3.84344 15.1571 5.87827 16 8 16Z" />
      <path d="M10.9699 4.97004L10.9499 4.99204L7.47685 9.41704L5.38385 7.32304C5.24168 7.19056 5.05363 7.11843 4.85933 7.12186C4.66503 7.12529 4.47964 7.204 4.34223 7.34141C4.20482 7.47883 4.1261 7.66421 4.12268 7.85851C4.11925 8.05281 4.19137 8.24086 4.32385 8.38304L6.96985 11.03C7.04113 11.1012 7.12601 11.1573 7.21943 11.1949C7.31285 11.2325 7.4129 11.251 7.5136 11.2491C7.61429 11.2472 7.71359 11.2251 7.80555 11.184C7.89751 11.143 7.98025 11.0838 8.04885 11.01L12.0409 6.02004C12.1768 5.87737 12.2511 5.68693 12.2477 5.4899C12.2444 5.29288 12.1636 5.10508 12.0229 4.96713C11.8822 4.82918 11.6928 4.75214 11.4958 4.75269C11.2987 4.75323 11.1098 4.83131 10.9699 4.97004Z" />
  </symbol>
</svg>