<svg xmlns="http://www.w3.org/2000/svg" style="display:none">
  <symbol id="icon-arrow-up" viewBox="0 0 13 7">
      <path fill-rule="evenodd" clip-rule="evenodd" d="M6.14663 0.146894C6.19308 0.10033 6.24825 0.0633873 6.309 0.0381808C6.36974 0.0129744 6.43486 0 6.50063 0C6.5664 0 6.63152 0.0129744 6.69226 0.0381808C6.75301 0.0633873 6.80819 0.10033 6.85463 0.146894L12.8546 6.14689C12.9485 6.24078 13.0013 6.36812 13.0013 6.50089C13.0013 6.63367 12.9485 6.76101 12.8546 6.85489C12.7607 6.94878 12.6334 7.00152 12.5006 7.00152C12.3679 7.00152 12.2405 6.94878 12.1466 6.85489L6.50063 1.20789L0.854632 6.85489C0.760745 6.94878 0.633407 7.00152 0.500632 7.00152C0.367856 7.00152 0.240518 6.94878 0.146632 6.85489C0.052745 6.76101 0 6.63367 0 6.50089C0 6.36812 0.052745 6.24078 0.146632 6.14689L6.14663 0.146894Z" />
  </symbol>
  <symbol id="icon-arrow-down" viewBox="0 0 13 7">
      <path fill-rule="evenodd" clip-rule="evenodd" d="M6.14663 6.85457C6.19308 6.90113 6.24825 6.93808 6.309 6.96328C6.36974 6.98849 6.43486 7.00146 6.50063 7.00146C6.5664 7.00146 6.63152 6.98849 6.69226 6.96328C6.75301 6.93808 6.80819 6.90113 6.85463 6.85457L12.8546 0.854571C12.9485 0.760684 13.0013 0.633347 13.0013 0.500571C13.0013 0.367795 12.9485 0.240458 12.8546 0.146571C12.7607 0.0526843 12.6334 -6.00815e-05 12.5006 -6.00815e-05C12.3679 -6.00815e-05 12.2405 0.0526843 12.1466 0.146571L6.50063 5.79357L0.854632 0.146571C0.760745 0.0526843 0.633407 -6.00815e-05 0.500632 -6.00815e-05C0.367856 -6.00815e-05 0.240518 0.0526843 0.146632 0.146571C0.052745 0.240458 0 0.367795 0 0.500571C0 0.633347 0.052745 0.760684 0.146632 0.854571L6.14663 6.85457Z" />
  </symbol>
</svg>